<svg id="Layer_1" data-name="Layer 1" xmlns="http://www.w3.org/2000/svg" viewBox="0 0 512 384"><path d="M469.33,64H42.67A42.72,42.72,0,0,0,0,106.67V405.33A42.72,42.72,0,0,0,42.67,448H469.33A42.72,42.72,0,0,0,512,405.33V106.67A42.72,42.72,0,0,0,469.33,64ZM42.67,85.33H469.33a20.58,20.58,0,0,1,4.44.9C436.83,120,314.34,232.09,271.48,270.71c-3.35,3-8.76,6.62-15.48,6.62s-12.12-3.6-15.49-6.63C197.65,232.09,75.16,120,38.23,86.23A20.58,20.58,0,0,1,42.67,85.33Zm-21.34,320V106.67a20.44,20.44,0,0,1,1.2-5.9C50.8,126.65,136.26,204.83,191.68,255.22,136.44,302.67,51,383.72,22.46,410.89A20.66,20.66,0,0,1,21.33,405.33Zm448,21.34H42.67a20.34,20.34,0,0,1-4.81-1c29.44-28.07,115.47-109.58,169.74-156,7.07,6.42,13.54,12.27,18.63,16.86,8.79,7.94,19.08,12.13,29.77,12.13s21-4.19,29.76-12.12c5.1-4.59,11.56-10.45,18.64-16.87,54.27,46.42,140.29,127.93,169.74,156A20.34,20.34,0,0,1,469.33,426.67Zm21.34-21.34a20.66,20.66,0,0,1-1.13,5.56c-28.51-27.18-114-108.22-169.22-155.67,55.42-50.39,140.87-128.57,169.15-154.45a20.44,20.44,0,0,1,1.2,5.9Z" transform="translate(0 -64)"/></svg>